<?xml version="1.0" encoding="UTF-8"?> <svg xmlns="http://www.w3.org/2000/svg" width="168" height="53" viewBox="0 0 168 53" fill="none"><path fill-rule="evenodd" clip-rule="evenodd" d="M31.0823 30.1416C31.0823 31.7022 30.7279 33.2029 30.0189 34.7035C29.31 36.2041 28.3057 37.4647 27.065 38.5451C25.6471 39.6856 24.052 40.586 22.1615 41.1862C20.3301 41.8465 18.0851 42.1467 15.4266 42.1467C8.98705 42.2067 4.49709 40.2258 2.96106 39.3255C1.72041 38.6052 0.952393 37.2246 0.952393 35.784V32.5426H1.18871C2.13396 33.1428 6.21036 35.5439 8.21903 36.2642C10.8185 37.1646 13.2407 37.6448 15.4857 37.6448C18.6759 37.6448 21.2163 37.0445 22.9886 35.784C24.761 34.5835 25.7062 32.9027 25.7062 30.8619C25.7062 29.1211 25.2927 27.8006 24.4065 26.9602C23.5794 26.1199 22.2797 25.4596 20.5664 25.0394C19.2667 24.6793 17.8488 24.3791 16.3128 24.139C14.7767 23.8989 13.1816 23.5988 11.4683 23.2387C7.98271 22.5184 5.44235 21.1978 3.72907 19.4571C2.07488 17.6563 1.24778 15.3153 1.24778 12.3741C1.24778 9.07267 2.60659 6.3115 5.38327 4.21061C8.10087 2.16975 11.5865 1.08929 15.8401 1.08929C18.5577 1.08929 22.0434 1.5695 24.4065 2.58993C26.1788 3.37026 26.8287 4.75084 26.8287 5.95135V8.53244C25.7653 7.93219 24.5837 7.39196 23.2249 6.91176C20.8027 6.0714 18.3214 5.65122 15.7811 5.65122C13.0044 5.65122 10.7594 6.25148 9.04613 7.39196C7.39193 8.59247 6.50576 10.0931 6.50576 11.8939C6.50576 13.5746 6.91931 14.8351 7.7464 15.7955C8.5735 16.7559 10.0505 17.4762 12.1773 17.9564C13.2998 18.1965 14.8949 18.4967 16.9626 18.8568C19.0304 19.217 20.8027 19.5771 22.2206 19.9373C25.1154 20.7176 27.3013 21.9181 28.7783 23.4788C30.3143 25.0994 31.0823 27.3204 31.0823 30.1416Z" fill="#649F8D"></path><path fill-rule="evenodd" clip-rule="evenodd" d="M56.4859 14.175L41.3028 50.3703C40.712 51.6908 39.6486 52.4712 38.2307 52.4712H35.1587L40.5939 40.0459L28.9554 11.7139H32.382C33.918 11.7139 34.7451 12.8544 35.3359 14.295L43.3115 33.8033L52.3505 11.7139H55.3634C56.4859 11.7139 56.9586 13.0945 56.4859 14.175Z" fill="#649F8D"></path><path fill-rule="evenodd" clip-rule="evenodd" d="M75.2139 33.9831C75.2139 33.8031 75.2139 33.683 75.2139 33.5029C75.2139 32.3625 74.8594 31.4621 74.2095 30.8618C73.5597 30.2616 72.26 29.7213 70.3695 29.3012C69.6605 29.1211 68.7743 28.941 67.5928 28.7609C66.4703 28.5208 65.4659 28.3408 64.5207 28.0406C61.9803 27.3804 60.1489 26.3599 59.0264 25.0394C57.963 23.7188 57.4313 22.0381 57.4313 20.0572C57.4313 18.8567 57.6676 17.6562 58.1402 16.5758C58.6719 15.4953 59.3809 14.5349 60.4443 13.6946C61.4486 12.8542 62.6893 12.1939 64.1662 11.7137C65.7023 11.2335 67.3565 10.9934 69.247 10.9934C71.0193 10.9934 73.796 11.4736 75.5684 12.0138C77.3407 12.5541 79.054 14.0547 79.054 15.9755V18.6166H78.8177C77.577 17.6562 76.041 16.8759 74.2095 16.2156C72.4372 15.5553 70.6648 15.2552 68.8925 15.2552C67.0611 15.2552 65.5841 15.6154 64.3435 16.3357C63.1028 17.056 62.4529 18.0764 62.4529 19.457C62.4529 20.6575 62.8074 21.6179 63.5754 22.2182C64.2844 22.8184 65.525 23.3586 67.1201 23.7188C68.0063 23.9589 69.0697 24.139 70.1331 24.3791C71.2556 24.6192 72.2009 24.7993 72.9689 24.9793C74.8594 25.3995 76.3954 26.1198 77.577 27.0802L75.2139 33.9831Z" fill="#649F8D"></path><path fill-rule="evenodd" clip-rule="evenodd" d="M72.4963 41.6664C71.1375 42.0265 69.6014 42.1466 67.9472 42.1466C63.9299 42.1466 61.1532 41.0061 59.6763 40.3458C58.3765 39.8056 57.4313 38.425 57.4313 36.8643V34.0432H57.6676C59.2036 35.2437 60.976 36.2041 62.8665 36.8643C64.757 37.5846 66.5884 37.8848 68.3608 37.8848C70.5467 37.8848 72.2009 37.5246 73.4415 36.8043C73.9141 36.5042 74.2686 36.2041 74.564 35.7839L72.4963 41.6664Z" fill="#649F8D"></path><path d="M115.092 11.7139H117.16C118.814 11.7139 120.054 13.2146 120.054 14.8953V38.3052C120.054 39.9859 118.814 41.4865 117.16 41.4865H115.092V11.7139Z" fill="#303030"></path><path fill-rule="evenodd" clip-rule="evenodd" d="M109.893 41.4866H107.293L95.005 6.43177L83.6029 38.9655C83.0712 40.4661 82.0078 41.5466 80.4717 41.5466H77.4587L91.6376 1.80981H95.5958C97.5454 1.80981 98.9633 2.89027 99.6131 4.75106L111.37 37.5849C112.138 39.6858 111.429 41.4866 109.893 41.4866Z" fill="#303030"></path><path fill-rule="evenodd" clip-rule="evenodd" d="M145.99 39.2055C143.095 41.3664 140.377 42.3268 136.833 42.3268C133.347 42.3268 130.275 40.9462 128.207 38.2451C126.199 35.4839 125.135 31.7023 125.135 26.8402C125.135 24.3192 125.49 22.0382 126.199 20.1174C126.907 18.1366 127.853 16.4559 129.093 15.0753C130.275 13.7547 131.693 12.6743 133.229 11.954C134.824 11.2337 136.478 10.8735 138.132 10.8735C139.668 10.8735 141.027 11.0536 142.209 11.3537C143.39 11.6538 144.631 12.1941 145.99 12.8543V0.00891113H148.058C149.712 0.00891113 150.952 1.50954 150.952 3.19025V38.3051C150.952 39.9858 149.712 41.4864 148.058 41.4864H145.99V39.2055ZM145.99 34.1633V17.0561C144.631 16.4559 143.449 16.0357 142.445 15.7956C141.382 15.5555 140.259 15.4354 139.019 15.4354C136.242 15.4354 134.115 16.3958 132.579 18.3767C131.043 20.3575 130.275 23.1187 130.275 26.7202C130.275 30.2617 130.866 32.9628 132.047 34.8236C133.229 36.6244 135.119 37.5848 137.778 37.5848C139.196 37.5848 140.614 37.2847 142.032 36.6244C143.39 35.9641 144.749 35.1237 145.99 34.1633Z" fill="#303030"></path><path fill-rule="evenodd" clip-rule="evenodd" d="M89.5701 30.0817C89.5701 27.1405 91.9333 24.7395 94.769 24.7395C97.6048 24.7395 100.027 27.1405 100.027 30.0817C100.027 33.023 97.6639 35.424 94.769 35.424C91.8742 35.424 89.5701 33.023 89.5701 30.0817Z" fill="#649F8D"></path><path fill-rule="evenodd" clip-rule="evenodd" d="M114.974 4.87083C114.974 3.43022 116.096 2.28973 117.514 2.28973C118.932 2.28973 120.054 3.43022 120.054 4.87083C120.054 6.31144 118.932 7.45192 117.514 7.45192C116.096 7.45192 114.974 6.31144 114.974 4.87083Z" fill="#303030"></path><path fill-rule="evenodd" clip-rule="evenodd" d="M160.931 30.2397C158.108 30.2397 155.815 32.5406 155.815 35.3841C155.815 38.2277 158.108 40.5285 160.931 40.5285C163.755 40.5285 166.048 38.2277 166.048 35.3841C166.048 32.5406 163.755 30.2397 160.931 30.2397ZM154.815 35.3841C154.815 31.993 157.551 29.2397 160.931 29.2397C164.312 29.2397 167.048 31.993 167.048 35.3841C167.048 38.7752 164.312 41.5285 160.931 41.5285C157.551 41.5285 154.815 38.7752 154.815 35.3841Z" fill="#303030"></path><path d="M159.133 37.9834V38.0601H159.21H159.995H160.071V37.9834V35.8196H161.147L162.308 38.0193L162.329 38.0601H162.375H163.264H163.393L163.331 37.9466L162.141 35.7618L162.14 35.7609C162.091 35.6739 162.051 35.6108 162.021 35.5678C162.616 35.3286 162.991 34.7147 162.991 34.0047C162.991 33.2365 162.603 32.6382 161.998 32.4099L161.997 32.4098C161.771 32.3256 161.515 32.2775 160.924 32.2775H159.21H159.133V32.3542V37.9834ZM160.071 34.9804V33.1166H160.9C161.33 33.1166 161.498 33.1639 161.633 33.2349C161.889 33.3781 162.037 33.6437 162.037 34.0366C162.037 34.3359 161.947 34.5703 161.792 34.7295C161.637 34.8884 161.411 34.9804 161.122 34.9804H160.071Z" fill="#303030" stroke="#303030" stroke-width="0.339089"></path></svg> 