<?xml version="1.0" standalone="no"?>
<!DOCTYPE svg PUBLIC "-//W3C//DTD SVG 20010904//EN"
 "http://www.w3.org/TR/2001/REC-SVG-20010904/DTD/svg10.dtd">
<svg version="1.0" xmlns="http://www.w3.org/2000/svg"
 width="512.000000pt" height="512.000000pt" viewBox="0 0 512.000000 512.000000"
 preserveAspectRatio="xMidYMid meet">

<g transform="translate(0.000000,512.000000) scale(0.100000,-0.100000)"
fill="#000000" stroke="none">
<path d="M2331 4349 c-86 -11 -89 -13 -84 -43 4 -19 10 -25 22 -21 31 9 206
25 289 25 170 0 381 -34 557 -91 172 -56 412 -188 548 -301 39 -33 50 -38 62
-28 24 20 18 33 -43 81 -240 194 -555 329 -872 374 -113 16 -371 18 -479 4z"/>
<path d="M140 4260 c-9 -18 -3 -25 57 -63 37 -24 255 -162 483 -307 228 -145
416 -265 418 -266 7 -5 -431 -866 -442 -870 -7 -3 -120 36 -251 86 -131 50
-245 88 -252 86 -7 -3 -13 -14 -13 -24 0 -16 44 -36 245 -112 202 -77 245 -96
239 -109 -23 -55 -27 -70 -21 -84 9 -23 379 -207 404 -201 12 4 33 32 53 75
19 38 36 69 38 69 24 0 90 -63 171 -164 l99 -122 -20 -27 c-23 -32 -33 -91
-24 -142 10 -52 79 -121 139 -137 43 -11 47 -15 47 -43 0 -53 64 -135 125
-161 40 -16 83 -18 119 -4 23 8 26 7 26 -12 0 -12 9 -41 21 -65 29 -60 87 -93
162 -93 46 0 57 -3 62 -20 9 -29 61 -68 105 -80 57 -15 115 3 163 51 22 21 45
39 52 39 8 0 107 -18 221 -40 114 -22 221 -40 236 -40 64 0 124 55 134 122 6
34 9 38 28 31 11 -5 47 -8 78 -8 51 0 60 3 93 35 22 22 40 51 47 77 10 40 13
43 45 43 100 0 189 101 171 195 -5 24 -3 25 45 25 65 0 121 32 154 88 22 37
25 52 21 109 l-4 66 144 124 c124 106 220 173 250 173 4 0 25 -36 47 -79 24
-50 45 -81 58 -85 25 -6 395 178 404 201 6 14 2 29 -21 84 -6 13 23 27 161 79
306 114 323 122 323 133 -1 43 -15 40 -265 -54 -240 -90 -248 -92 -262 -73 -8
10 -109 207 -224 437 l-209 417 47 30 c540 341 923 586 923 591 0 3 -6 14 -14
24 -13 18 -42 1 -496 -288 -465 -296 -483 -307 -497 -287 -8 11 -23 20 -33 20
-25 0 -382 -185 -395 -204 -6 -10 -4 -26 8 -52 10 -20 14 -40 10 -45 -4 -4
-42 -26 -83 -48 -108 -59 -151 -57 -522 19 l-293 61 -230 -62 c-192 -51 -235
-66 -260 -89 l-30 -29 -216 14 c-234 14 -228 13 -346 87 l-62 39 22 45 c15 32
19 49 12 60 -14 21 -364 204 -392 204 -12 0 -28 -9 -36 -20 -13 -18 -37 -4
-492 285 -263 168 -482 305 -486 305 -5 0 -13 -9 -19 -20z m1208 -692 c86 -45
158 -82 160 -83 2 -2 -115 -235 -258 -519 l-262 -516 -161 82 c-89 45 -164 83
-166 85 -6 4 513 1033 522 1033 4 0 79 -37 165 -82z m2856 -433 c142 -284 257
-517 255 -519 -2 -2 -77 -40 -166 -85 l-162 -80 -261 516 c-143 283 -260 517
-258 518 6 5 323 164 328 164 3 1 121 -231 264 -514z m-1209 185 c370 -77 387
-77 514 -10 52 28 98 47 102 43 4 -5 91 -172 193 -374 l186 -365 -56 -27 c-31
-15 -123 -85 -206 -155 -82 -70 -152 -126 -154 -125 -10 4 -403 368 -400 370
1 1 16 -1 33 -6 25 -7 33 -6 37 6 12 30 5 41 -31 48 -57 10 -209 71 -293 117
-90 49 -167 100 -274 181 l-80 60 -83 -28 c-81 -29 -84 -31 -185 -139 -121
-129 -174 -160 -273 -159 -60 1 -145 27 -145 44 0 5 79 112 176 237 l176 227
206 57 c114 31 221 57 237 57 17 0 160 -26 320 -59z m-1404 -20 c45 -28 101
-55 125 -60 25 -6 124 -14 220 -19 97 -5 177 -11 179 -13 1 -1 -60 -84 -137
-183 -77 -99 -143 -189 -148 -200 -25 -66 62 -119 195 -120 121 0 171 27 309
169 97 98 118 115 167 131 l55 18 86 -65 c107 -81 258 -171 356 -214 41 -18
79 -42 86 -53 6 -12 110 -111 231 -222 121 -110 228 -215 238 -232 23 -42 22
-84 -3 -125 -21 -34 -72 -62 -112 -62 -37 0 -134 51 -292 154 -138 90 -149 96
-162 79 -7 -10 -13 -20 -13 -23 -1 -3 73 -54 163 -113 180 -119 203 -139 211
-182 12 -63 -65 -142 -127 -131 -15 3 -123 55 -239 117 -197 103 -214 109
-226 93 -7 -10 -13 -20 -13 -24 0 -3 87 -51 193 -106 l192 -100 3 -42 c3 -34
-2 -47 -22 -66 -42 -43 -63 -42 -237 14 -88 28 -163 50 -165 48 -2 -3 -5 -14
-6 -27 -3 -20 6 -25 77 -48 95 -30 105 -37 105 -73 0 -42 -9 -59 -42 -76 -28
-15 -44 -13 -253 27 l-222 42 1 51 c0 61 -24 108 -71 137 -27 17 -31 24 -23
39 15 29 12 98 -7 137 -20 44 -77 82 -126 85 -29 2 -36 6 -30 18 4 8 8 42 8
75 0 74 -28 118 -93 147 -62 28 -117 18 -181 -32 l-49 -39 -6 35 c-8 41 -55
97 -96 114 -17 7 -53 11 -84 8 -44 -4 -65 -13 -119 -51 -36 -26 -69 -47 -74
-47 -4 0 -53 56 -107 125 -66 83 -114 134 -143 151 l-44 25 193 380 c106 208
194 379 195 379 2 0 40 -23 84 -50z m107 -994 c33 -31 37 -39 36 -81 -1 -44
-5 -51 -75 -121 -84 -86 -113 -104 -163 -104 -47 0 -113 57 -122 106 -10 55
12 91 94 151 132 98 168 106 230 49z m331 -72 c36 -30 49 -81 31 -123 -16 -40
-281 -298 -323 -316 -68 -28 -157 29 -173 111 -6 33 -4 38 32 66 22 17 75 68
119 112 43 45 106 102 138 129 50 40 66 47 103 47 31 0 51 -7 73 -26z m161
-253 c33 -32 45 -69 36 -106 -7 -28 -164 -210 -205 -237 -57 -39 -149 -9 -177
57 -18 45 -18 63 4 102 15 29 152 155 212 196 39 27 96 22 130 -12z m91 -240
c22 -22 29 -39 29 -67 0 -47 -41 -119 -80 -139 -57 -29 -130 -13 -155 36 -12
22 -8 29 67 111 45 48 87 88 95 88 8 0 28 -13 44 -29z"/>
<path d="M1870 4226 c-120 -50 -271 -135 -385 -218 -5 -4 -2 -15 9 -26 17 -20
19 -19 99 35 85 57 237 137 320 168 33 13 46 22 42 32 -3 8 -5 19 -5 24 0 14
-20 10 -80 -15z"/>
<path d="M2530 3845 l0 -135 30 0 30 0 0 135 0 135 -30 0 -30 0 0 -135z"/>
<path d="M1837 3802 c-15 -17 -11 -24 81 -115 l98 -98 19 21 c19 21 18 21 -75
115 -52 52 -97 95 -101 95 -3 0 -13 -8 -22 -18z"/>
<path d="M3160 3725 c-93 -94 -94 -94 -75 -115 l19 -21 98 98 c92 91 96 98 81
115 -9 10 -19 18 -22 18 -4 0 -49 -43 -101 -95z"/>
<path d="M4189 1921 c-12 -31 -38 -87 -57 -125 -32 -66 -33 -70 -16 -83 10 -7
21 -13 24 -13 7 0 74 138 104 214 18 42 15 51 -13 59 -16 4 -24 -5 -42 -52z"/>
<path d="M924 1826 c-11 -29 136 -282 230 -396 101 -122 351 -350 383 -350 4
0 14 9 20 19 11 17 4 25 -60 74 -206 156 -399 388 -501 605 -21 43 -35 62 -48
62 -10 0 -21 -6 -24 -14z"/>
<path d="M3839 1367 c-31 -34 -94 -94 -140 -134 -478 -405 -1127 -529 -1711
-325 -42 14 -79 24 -81 22 -3 -3 -7 -14 -11 -25 -5 -18 4 -24 72 -47 190 -66
316 -88 525 -95 203 -7 332 6 514 53 313 79 567 222 804 452 123 119 129 126
113 143 -10 11 -20 19 -23 19 -3 0 -31 -28 -62 -63z"/>
</g>
</svg>
